<svg width="150" height="62" viewBox="0 0 150 62" fill="none" xmlns="http://www.w3.org/2000/svg">
    <path d="M30.1912 45.6688C36.1538 45.6688 40.9874 40.8352 40.9874 34.8726C40.9874 28.91 36.1538 24.0764 30.1912 24.0764C24.2286 24.0764 19.395 28.91 19.395 34.8726C19.395 40.8352 24.2286 45.6688 30.1912 45.6688Z"
          fill="#79CDF7"/>
    <path d="M128.121 11.6561C129.968 11.6561 131.465 10.1589 131.465 8.31212C131.465 6.46531 129.968 4.96817 128.121 4.96817C126.274 4.96817 124.777 6.46531 124.777 8.31212C124.777 10.1589 126.274 11.6561 128.121 11.6561Z"
          fill="#0F9DF4"/>
    <path d="M62.293 50.4459V46.4331H63.8216C64.3949 46.4331 64.777 46.5287 65.0637 46.7197C65.3503 46.9108 65.5414 47.1974 65.5414 47.5796C65.5414 47.7707 65.4458 47.9618 65.3503 48.0573C65.2547 48.2484 65.0637 48.3439 64.8726 48.4395C65.1592 48.535 65.3503 48.6306 65.4458 48.8216C65.6369 49.0127 65.6369 49.2038 65.6369 49.3949C65.6369 49.7771 65.5414 50.0637 65.2547 50.2548C64.9681 50.4458 64.586 50.5414 64.1082 50.5414H62.293V50.4459ZM62.9618 48.0573H63.8216C64.4904 48.0573 64.777 47.8662 64.777 47.4841C64.777 47.1019 64.4904 46.9108 63.8216 46.9108H62.8662V48.0573H62.9618ZM62.9618 48.6306V49.8726H64.1082C64.3949 49.8726 64.586 49.777 64.777 49.6815C64.8726 49.586 64.9681 49.3949 64.9681 49.2038C64.9681 48.8216 64.6815 48.6306 64.1082 48.6306H62.9618Z"
          fill="#0F9DF4"/>
    <path d="M67.261 47.7707H68.312C68.7897 47.7707 69.1719 47.8662 69.3629 48.1529C69.6496 48.344 69.7451 48.7261 69.7451 49.1083C69.7451 49.4904 69.6496 49.8726 69.3629 50.0637C69.0763 50.3503 68.6942 50.4459 68.2165 50.4459H66.4967V46.4331H67.1655V47.7707H67.261ZM67.261 48.3439V49.8726H68.312C68.5986 49.8726 68.7897 49.777 68.8852 49.6815C68.9808 49.586 69.0763 49.3949 69.0763 49.1083C69.0763 48.9172 68.9808 48.7261 68.8852 48.535C68.7897 48.3439 68.5986 48.3439 68.312 48.3439H67.261ZM71.2738 50.4459H70.605V46.4331H71.2738V50.4459Z"
          fill="#0F9DF4"/>
    <path d="M75.7643 50.4459H75.0955V47.0064H73.2802V50.4459H72.6115V46.4331H75.8599V50.4459H75.7643Z" fill="#0F9DF4"/>
    <path d="M79.4904 46.4331H80.1592V50.4459H79.4904V47.4841L77.6751 50.4459H77.0063V46.4331H77.6751V49.3949L79.4904 46.4331Z"
          fill="#0F9DF4"/>
    <path d="M82.9299 49.9682C83.2165 49.9682 83.4076 49.8726 83.5987 49.7771C83.7898 49.6815 83.8853 49.3949 83.8853 49.2038H84.5541C84.5541 49.3949 84.4586 49.6815 84.2675 49.8726C84.0764 50.0637 83.8853 50.2548 83.6942 50.3503C83.4076 50.4459 83.2165 50.5414 82.9299 50.5414C82.3567 50.5414 81.9745 50.3503 81.5923 49.9682C81.3057 49.586 81.1146 49.1083 81.1146 48.4395V48.344C81.1146 47.9618 81.2102 47.5796 81.3057 47.293C81.4012 47.0064 81.6879 46.7198 81.9745 46.6242C82.2611 46.4331 82.5477 46.3376 82.9299 46.3376C83.4076 46.3376 83.7898 46.4332 84.0764 46.7198C84.363 47.0064 84.5541 47.3885 84.5541 47.7707H83.8853C83.8853 47.4841 83.7898 47.293 83.5987 47.1019C83.4076 46.9109 83.2165 46.8153 82.9299 46.8153C82.5477 46.8153 82.2611 46.9109 82.07 47.1975C81.879 47.4841 81.7834 47.7707 81.7834 48.2484V48.344C81.7834 48.8217 81.879 49.2038 82.07 49.3949C82.2611 49.7771 82.5477 49.9682 82.9299 49.9682Z"
          fill="#0F9DF4"/>
    <path d="M86.5604 48.7261H86.0827V50.4459H85.4139V46.4331H86.0827V48.1529H86.5604L87.898 46.4331H88.7579L87.1337 48.3439L88.8534 50.4459H87.9936L86.5604 48.7261Z"
          fill="#0F9DF4"/>
    <path d="M92.0063 46.4331H92.6751V50.4459H92.0063V47.4841L90.191 50.4459H89.5222V46.4331H90.191V49.3949L92.0063 46.4331Z"
          fill="#0F9DF4"/>
    <path d="M95.5414 48.344C95.5414 47.9618 95.6369 47.5796 95.7325 47.293C95.9235 47.0064 96.1146 46.7198 96.4012 46.5287C96.6879 46.3376 96.9745 46.2421 97.3567 46.2421C97.9299 46.2421 98.3121 46.4331 98.6942 46.8153C99.0764 47.1975 99.1719 47.6752 99.1719 48.344V48.4395C99.1719 48.8217 99.0764 49.2038 98.9809 49.4905C98.7898 49.7771 98.5987 50.0637 98.3121 50.2548C98.0255 50.4459 97.7388 50.5414 97.3567 50.5414C96.7834 50.5414 96.4013 50.3503 96.0191 49.9682C95.6369 49.586 95.5414 49.0127 95.5414 48.344ZM96.2102 48.4395C96.2102 48.9172 96.3057 49.2038 96.4968 49.4905C96.6879 49.7771 96.9745 49.8726 97.3567 49.8726C97.7388 49.8726 98.0254 49.7771 98.2165 49.4905C98.4076 49.2038 98.5032 48.8217 98.5032 48.344C98.5032 47.8663 98.4076 47.5796 98.2165 47.293C98.0254 47.0064 97.7388 46.9108 97.3567 46.9108C96.9745 46.9108 96.7834 47.0064 96.4968 47.293C96.4013 47.5796 96.2102 47.9618 96.2102 48.4395Z"
          fill="#0F9DF4"/>
    <path d="M103.376 50.4459H102.707V48.7261H100.892V50.4459H100.223V46.4331H100.892V48.1529H102.707V46.4331H103.376V50.4459Z"
          fill="#0F9DF4"/>
    <path d="M107.771 46.4331V50.4459H107.102V47.0064H105.764L105.669 48.535C105.669 49.2038 105.478 49.6815 105.287 50.0637C105.096 50.3503 104.809 50.5414 104.427 50.5414H104.14V49.9681H104.331C104.522 49.9681 104.713 49.7771 104.809 49.586C104.904 49.3949 105 48.9172 105 48.2484L105.096 46.5287H107.771V46.4331Z"
          fill="#0F9DF4"/>
    <path d="M111.401 50.4459C111.401 50.3503 111.306 50.2548 111.306 50.0637C111.019 50.3503 110.637 50.5414 110.159 50.5414C109.777 50.5414 109.395 50.4459 109.204 50.1592C108.917 49.9682 108.822 49.6815 108.822 49.2994C108.822 48.9172 109.013 48.535 109.299 48.344C109.586 48.1529 110.064 47.9618 110.637 47.9618H111.306V47.6752C111.306 47.3886 111.21 47.1975 111.115 47.1019C110.923 46.9109 110.732 46.9108 110.446 46.9108C110.159 46.9108 109.968 47.0064 109.872 47.1019C109.681 47.1975 109.586 47.3886 109.586 47.5796H108.917C108.917 47.3886 109.013 47.1975 109.108 47.0064C109.299 46.8153 109.49 46.6242 109.681 46.5287C109.968 46.4331 110.159 46.3376 110.446 46.3376C110.923 46.3376 111.306 46.4332 111.497 46.7198C111.783 46.9109 111.879 47.293 111.879 47.6752V49.4905C111.879 49.8726 111.879 50.1593 111.974 50.3503V50.4459H111.401ZM110.255 49.8726C110.446 49.8726 110.637 49.7771 110.828 49.6815C111.019 49.586 111.21 49.3949 111.21 49.2038V48.4395H110.637C109.777 48.4395 109.395 48.7261 109.395 49.2038C109.395 49.3949 109.49 49.586 109.586 49.6815C109.872 49.8726 110.064 49.8726 110.255 49.8726Z"
          fill="#0F9DF4"/>
    <path d="M115.7 46.4331H116.369V50.4459H115.7V47.4841L113.885 50.4459H113.121V46.4331H113.79V49.3949L115.7 46.4331ZM115.892 44.9045C115.892 45.1911 115.796 45.4777 115.605 45.6688C115.414 45.8599 115.127 45.9554 114.841 45.9554C114.554 45.9554 114.267 45.8599 114.076 45.6688C113.885 45.4777 113.79 45.2866 113.79 44.9045H114.363C114.363 45.0956 114.363 45.1911 114.458 45.2867C114.554 45.3822 114.65 45.4777 114.841 45.4777C115.032 45.4777 115.127 45.3822 115.223 45.2867C115.318 45.1911 115.414 45.0956 115.414 44.9045H115.892Z"
          fill="#0F9DF4"/>
    <path d="M120.764 50.4459H120.096V48.7261H118.28V50.4459H117.611V46.4331H118.28V48.1529H120.096V46.4331H120.764V50.4459Z"
          fill="#0F9DF4"/>
    <path d="M17.8662 43.949H7.07007C3.15287 43.949 0 40.7962 0 36.879V7.07009C0 3.15289 3.15287 0 7.07007 0H28.758C32.6752 0 35.828 3.15289 35.828 7.07009V17.8663C35.828 18.8217 35.0637 19.586 34.1083 19.586C33.1529 19.586 32.3885 18.8217 32.3885 17.8663V7.07009C32.3885 4.96818 30.6688 3.34395 28.6624 3.34395H7.07007C4.96815 3.34395 3.34395 5.06372 3.34395 7.07009V36.879C3.34395 38.9809 5.0637 40.6051 7.07007 40.6051H17.8662C18.8217 40.6051 19.586 41.3694 19.586 42.3249C19.586 43.2803 18.8217 43.949 17.8662 43.949Z"
          fill="#0F9DF4"/>
    <path d="M25.9873 13.3758H9.74526C8.78985 13.3758 8.02551 12.6115 8.02551 11.656C8.02551 10.7006 8.78985 9.93631 9.74526 9.93631H25.9873C26.9427 9.93631 27.707 10.7006 27.707 11.656C27.707 12.6115 26.9427 13.3758 25.9873 13.3758Z"
          fill="#0F9DF4"/>
    <path d="M25.9873 20.5414H9.74526C8.78985 20.5414 8.02551 19.7771 8.02551 18.8217C8.02551 17.8662 8.78985 17.1019 9.74526 17.1019H25.9873C26.9427 17.1019 27.707 17.8662 27.707 18.8217C27.707 19.7771 26.9427 20.5414 25.9873 20.5414Z"
          fill="#0F9DF4"/>
    <path d="M17.8663 27.707H9.74526C8.78985 27.707 8.02551 26.9427 8.02551 25.9873C8.02551 25.0318 8.78985 24.2675 9.74526 24.2675H17.8663C18.8217 24.2675 19.586 25.0318 19.586 25.9873C19.586 26.9427 18.8217 27.707 17.8663 27.707Z"
          fill="#0F9DF4"/>
    <path d="M38.1211 59.3312L35.7326 54.0764C35.3504 53.2166 34.2994 53.0255 33.5351 53.5987L31.9109 55.0319C31.051 55.7962 29.6179 55.2229 29.6179 54.0764V37.93C29.6179 36.7835 31.051 36.1147 31.9109 36.879L43.8536 47.6752C44.7135 48.4395 44.2358 49.8726 43.0893 50.0637L40.8918 50.2548C39.9364 50.3503 39.3631 51.3057 39.7453 52.1656L42.1338 57.4204C42.4205 58.0892 42.1338 58.9491 41.4651 59.2357L39.8409 60C39.1721 60.2866 38.4077 60 38.1211 59.3312Z"
          fill="white"/>
    <path d="M39.363 61.8153C38.9808 61.8153 38.5987 61.7197 38.312 61.6242C37.5477 61.3376 36.9745 60.7643 36.5923 60L34.3948 55.1274L33.1528 56.2739C32.2929 57.1338 31.0509 57.3248 29.9044 56.8471C28.7579 56.3694 28.0891 55.3185 28.0891 54.0764V37.9299C28.0891 36.6879 28.7579 35.637 29.9044 35.1592C31.0509 34.6815 32.2929 34.8726 33.1528 35.637L45.0955 46.4331C45.9554 47.293 46.3375 48.4395 45.9554 49.586C45.5732 50.7325 44.6178 51.4968 43.3757 51.6879L41.656 51.879L43.8534 56.7516C44.1401 57.5159 44.2356 58.2803 43.949 59.0446C43.6624 59.8089 43.0891 60.3822 42.3248 60.7643L40.7006 61.5287C40.1273 61.7198 39.7452 61.8153 39.363 61.8153ZM34.4904 51.4968C34.6815 51.4968 34.8726 51.4968 35.0636 51.5924C36.0191 51.7834 36.7834 52.4522 37.1655 53.3121L39.363 58.2802L40.4139 57.8025L38.2165 52.8344C37.8343 51.9745 37.8343 50.9236 38.4076 50.0637C38.9808 49.2038 39.7452 48.6306 40.7006 48.535L42.1337 48.4395L31.242 38.5987V53.3121L32.2929 52.3567C33.0573 51.7835 33.7261 51.4968 34.4904 51.4968Z"
          fill="#0F9DF4"/>
    <path d="M73.4714 16.7197C71.274 17.0064 68.2167 17.0064 65.637 17.0064C63.5351 17.0064 62.0065 15.6688 62.0065 13.5669V4.39491C62.0065 2.38854 63.4396 0.955414 65.637 0.955414C68.2167 0.955414 71.274 0.955431 73.4714 1.24206L73.2804 4.29936H67.3568C66.688 4.29936 66.3058 4.68153 66.3058 5.25478V7.16561H72.4205V10.1274H66.3058V12.5159C66.3058 13.1847 66.688 13.4713 67.3568 13.4713H73.2804L73.4714 16.7197Z"
          fill="#232323"/>
    <path d="M75.5732 4.49046C75.5732 2.38855 77.0064 1.05096 79.1083 1.05096C81.5923 1.05096 84.3631 1.05098 86.465 1.33761L86.2739 4.39491H80.9236C80.1592 4.39491 79.8726 4.77708 79.8726 5.44587V16.9108H75.5732V4.49046Z"
          fill="#232323"/>
    <path d="M88.0892 1.05096C90.0956 0.859876 91.4332 0.859894 94.4905 0.859894C99.172 0.859894 100.701 2.00639 100.701 6.11467C100.701 10.223 99.2676 11.3694 95.0638 11.3694C94.2039 11.3694 93.2485 11.2739 92.3886 11.1784V16.8153H88.0892V1.05096ZM94.395 8.31211C95.9236 8.31211 96.4013 7.83439 96.4013 6.21019C96.4013 4.49044 95.9236 4.01275 94.395 4.01275H92.3886V8.31211H94.395Z"
          fill="#232323"/>
    <path d="M115.987 16.9108H111.688V10.0318H107.006V16.9108H102.707V1.05096H107.006V6.879H111.688V1.05096H115.987V16.9108Z"
          fill="#232323"/>
    <path d="M75.4777 39.8408H71.0828V26.9427H66.4013V39.8408H62.1019V23.9809H75.3822V39.8408H75.4777Z" fill="#232323"/>
    <path d="M92.0064 31.9109C92.0064 38.3121 90.0956 40.1274 84.9364 40.1274C79.6816 40.1274 77.8663 38.3121 77.8663 31.9109C77.8663 25.5096 79.6816 23.6943 84.9364 23.6943C90.0956 23.6943 92.0064 25.5096 92.0064 31.9109ZM82.2612 31.9109C82.2612 35.8281 82.8345 36.879 84.8408 36.879C86.8472 36.879 87.4205 35.8281 87.4205 31.9109C87.4205 27.9937 86.8472 26.9427 84.8408 26.9427C82.8345 27.0382 82.2612 27.9937 82.2612 31.9109Z"
          fill="#232323"/>
    <path d="M94.2994 23.9809C96.3058 23.7898 97.6434 23.7898 100.701 23.7898C105.382 23.7898 106.911 24.9363 106.911 29.0446C106.911 33.1529 105.478 34.2994 101.274 34.2994C100.414 34.2994 99.4587 34.2038 98.5988 34.1083V39.7452H94.2994V23.9809ZM100.605 31.242C102.134 31.242 102.612 30.7643 102.612 29.1401C102.612 27.4204 102.134 26.9427 100.605 26.9427H98.5988V31.242H100.605Z"
          fill="#232323"/>
    <path d="M116.561 27.3248V39.8408H112.261V27.3248H107.675V23.9809H121.051V27.3248H116.561Z" fill="#232323"/>
    <path d="M125.35 36.1147L124.395 39.8408H120L124.299 25.1274C124.49 24.4586 125.064 23.9809 125.732 23.9809H129.745C130.414 23.9809 130.987 24.4586 131.178 25.1274L135.478 39.8408H131.083L130.127 36.1147H125.35ZM128.408 28.9491C128.312 28.3758 128.121 27.8026 128.121 27.3248H127.548C127.452 27.8981 127.357 28.4714 127.261 28.9491L126.21 32.9618H129.459L128.408 28.9491Z"
          fill="#232323"/>
    <path d="M150 39.8408H145.701V26.9427H144.268C143.408 26.9427 143.026 27.3249 142.93 28.0892C142.643 31.4331 142.357 34.2994 141.688 36.2102C140.637 39.4586 138.535 40.3185 135.764 39.8408L135.478 36.4968C136.529 36.3057 137.293 36.1147 137.771 34.9682C138.344 33.535 138.631 31.2421 138.822 27.6115C139.013 25.1274 140.35 23.8853 142.834 23.8853H150V39.8408Z"
          fill="#232323"/>
</svg>
